<?xml version="1.0" encoding="utf-8" standalone="no"?>
<!DOCTYPE svg PUBLIC "-//W3C//DTD SVG 1.1//EN"
  "http://www.w3.org/Graphics/SVG/1.1/DTD/svg11.dtd">
<svg xmlns:xlink="http://www.w3.org/1999/xlink" width="504.980598pt" height="213.597308pt" viewBox="0 0 504.980598 213.597308" xmlns="http://www.w3.org/2000/svg" version="1.1">
 <metadata>
  <rdf:RDF xmlns:dc="http://purl.org/dc/elements/1.1/" xmlns:cc="http://creativecommons.org/ns#" xmlns:rdf="http://www.w3.org/1999/02/22-rdf-syntax-ns#">
   <cc:Work>
    <dc:type rdf:resource="http://purl.org/dc/dcmitype/StillImage"/>
    <dc:date>2025-08-31T02:17:03.093119</dc:date>
    <dc:format>image/svg+xml</dc:format>
    <dc:creator>
     <cc:Agent>
      <dc:title>Matplotlib v3.10.6, https://matplotlib.org/</dc:title>
     </cc:Agent>
    </dc:creator>
   </cc:Work>
  </rdf:RDF>
 </metadata>
 <defs>
  <style type="text/css">*{stroke-linejoin: round; stroke-linecap: butt}</style>
 </defs>
 <g id="figure_1">
  <g id="patch_1">
   <path d="M 0 213.597308 
L 504.980598 213.597308 
L 504.980598 0 
L 0 0 
z
" style="fill: #ffffff"/>
  </g>
  <g id="axes_1">
   <g id="patch_2">
    <path d="M 30.064063 172.976683 
L 228.489259 172.976683 
L 228.489259 31.2444 
L 30.064063 31.2444 
L 30.064063 172.976683 
z
" style="fill: none"/>
   </g>
   <g id="matplotlib.axis_1">
    <g id="xtick_1">
     <g id="line2d_1">
      <defs>
       <path id="m114b6868ec" d="M 0 0 
L 0 3.5 
" style="stroke: #000000; stroke-width: 0.8"/>
      </defs>
      <g>
       <use xlink:href="#m114b6868ec" x="49.104864" y="177.976683" style="stroke: #000000; stroke-width: 0.8"/>
      </g>
     </g>
     <g id="text_1">
      <text style="font-size: 8px; font-family: 'DejaVu Sans', 'Bitstream Vera Sans', 'Computer Modern Sans Serif', 'Lucida Grande', 'Verdana', 'Geneva', 'Lucid', 'Arial', 'Helvetica', 'Avant Garde', sans-serif; text-anchor: middle" x="49.104864" y="191.055433" transform="rotate(-0 49.104864 191.055433)">1990</text>
     </g>
    </g>
    <g id="xtick_2">
     <g id="line2d_2">
      <g>
       <use xlink:href="#m114b6868ec" x="99.212237" y="177.976683" style="stroke: #000000; stroke-width: 0.8"/>
      </g>
     </g>
     <g id="text_2">
      <text style="font-size: 8px; font-family: 'DejaVu Sans', 'Bitstream Vera Sans', 'Computer Modern Sans Serif', 'Lucida Grande', 'Verdana', 'Geneva', 'Lucid', 'Arial', 'Helvetica', 'Avant Garde', sans-serif; text-anchor: middle" x="99.212237" y="191.055433" transform="rotate(-0 99.212237 191.055433)">2000</text>
     </g>
    </g>
    <g id="xtick_3">
     <g id="line2d_3">
      <g>
       <use xlink:href="#m114b6868ec" x="149.31961" y="177.976683" style="stroke: #000000; stroke-width: 0.8"/>
      </g>
     </g>
     <g id="text_3">
      <text style="font-size: 8px; font-family: 'DejaVu Sans', 'Bitstream Vera Sans', 'Computer Modern Sans Serif', 'Lucida Grande', 'Verdana', 'Geneva', 'Lucid', 'Arial', 'Helvetica', 'Avant Garde', sans-serif; text-anchor: middle" x="149.31961" y="191.055433" transform="rotate(-0 149.31961 191.055433)">2010</text>
     </g>
    </g>
    <g id="xtick_4">
     <g id="line2d_4">
      <g>
       <use xlink:href="#m114b6868ec" x="199.426983" y="177.976683" style="stroke: #000000; stroke-width: 0.8"/>
      </g>
     </g>
     <g id="text_4">
      <text style="font-size: 8px; font-family: 'DejaVu Sans', 'Bitstream Vera Sans', 'Computer Modern Sans Serif', 'Lucida Grande', 'Verdana', 'Geneva', 'Lucid', 'Arial', 'Helvetica', 'Avant Garde', sans-serif; text-anchor: middle" x="199.426983" y="191.055433" transform="rotate(-0 199.426983 191.055433)">2020</text>
     </g>
    </g>
    <g id="text_5">
     <text style="font-size: 10px; font-family: 'DejaVu Sans', 'Bitstream Vera Sans', 'Computer Modern Sans Serif', 'Lucida Grande', 'Verdana', 'Geneva', 'Lucid', 'Arial', 'Helvetica', 'Avant Garde', sans-serif; text-anchor: middle" x="129.276661" y="204.317621" transform="rotate(-0 129.276661 204.317621)">Year</text>
    </g>
   </g>
   <g id="matplotlib.axis_2">
    <g id="ytick_1">
     <g id="line2d_5">
      <defs>
       <path id="m1c6270cdb2" d="M 0 0 
L -3.5 0 
" style="stroke: #000000; stroke-width: 0.8"/>
      </defs>
      <g>
       <use xlink:href="#m1c6270cdb2" x="30.064063" y="172.976683" style="stroke: #000000; stroke-width: 0.8"/>
      </g>
     </g>
     <g id="text_6">
      <text style="font-size: 10px; font-family: 'DejaVu Sans', 'Bitstream Vera Sans', 'Computer Modern Sans Serif', 'Lucida Grande', 'Verdana', 'Geneva', 'Lucid', 'Arial', 'Helvetica', 'Avant Garde', sans-serif; text-anchor: end" x="23.064063" y="176.775902" transform="rotate(-0 23.064063 176.775902)">0%</text>
     </g>
    </g>
    <g id="ytick_2">
     <g id="line2d_6">
      <g>
       <use xlink:href="#m1c6270cdb2" x="30.064063" y="144.493384" style="stroke: #000000; stroke-width: 0.8"/>
      </g>
     </g>
     <g id="text_7">
      <text style="font-size: 10px; font-family: 'DejaVu Sans', 'Bitstream Vera Sans', 'Computer Modern Sans Serif', 'Lucida Grande', 'Verdana', 'Geneva', 'Lucid', 'Arial', 'Helvetica', 'Avant Garde', sans-serif; text-anchor: end" x="23.064063" y="148.292603" transform="rotate(-0 23.064063 148.292603)">2%</text>
     </g>
    </g>
    <g id="ytick_3">
     <g id="line2d_7">
      <g>
       <use xlink:href="#m1c6270cdb2" x="30.064063" y="116.010084" style="stroke: #000000; stroke-width: 0.8"/>
      </g>
     </g>
     <g id="text_8">
      <text style="font-size: 10px; font-family: 'DejaVu Sans', 'Bitstream Vera Sans', 'Computer Modern Sans Serif', 'Lucida Grande', 'Verdana', 'Geneva', 'Lucid', 'Arial', 'Helvetica', 'Avant Garde', sans-serif; text-anchor: end" x="23.064063" y="119.809303" transform="rotate(-0 23.064063 119.809303)">4%</text>
     </g>
    </g>
    <g id="ytick_4">
     <g id="line2d_8">
      <g>
       <use xlink:href="#m1c6270cdb2" x="30.064063" y="87.526785" style="stroke: #000000; stroke-width: 0.8"/>
      </g>
     </g>
     <g id="text_9">
      <text style="font-size: 10px; font-family: 'DejaVu Sans', 'Bitstream Vera Sans', 'Computer Modern Sans Serif', 'Lucida Grande', 'Verdana', 'Geneva', 'Lucid', 'Arial', 'Helvetica', 'Avant Garde', sans-serif; text-anchor: end" x="23.064063" y="91.326003" transform="rotate(-0 23.064063 91.326003)">6%</text>
     </g>
    </g>
    <g id="ytick_5">
     <g id="line2d_9">
      <g>
       <use xlink:href="#m1c6270cdb2" x="30.064063" y="59.043485" style="stroke: #000000; stroke-width: 0.8"/>
      </g>
     </g>
     <g id="text_10">
      <text style="font-size: 10px; font-family: 'DejaVu Sans', 'Bitstream Vera Sans', 'Computer Modern Sans Serif', 'Lucida Grande', 'Verdana', 'Geneva', 'Lucid', 'Arial', 'Helvetica', 'Avant Garde', sans-serif; text-anchor: end" x="23.064063" y="62.842704" transform="rotate(-0 23.064063 62.842704)">8%</text>
     </g>
    </g>
   </g>
   <g id="line2d_10">
    <path d="M 39.08339 72.665407 
L 44.094127 74.495415 
L 49.104864 76.248748 
L 54.115602 79.704387 
L 59.126339 82.371032 
L 64.137076 82.099384 
L 69.147813 83.811252 
L 74.158551 87.468575 
L 79.169288 90.929376 
L 84.180025 91.994367 
L 89.190763 96.23933 
L 94.2015 98.795265 
L 99.212237 99.163864 
L 104.222974 98.439365 
L 109.233712 96.718441 
L 114.244449 97.759661 
L 119.255186 98.418445 
L 124.265924 98.927264 
L 129.276661 97.996006 
L 134.287398 97.717854 
L 139.298136 99.972412 
L 144.308873 100.46984 
L 149.31961 101.479604 
L 154.330347 104.090811 
L 159.341085 107.823299 
L 164.351822 108.809259 
L 169.362559 104.293899 
L 174.373297 98.366565 
L 179.384034 93.11707 
L 184.394771 95.317619 
L 189.405508 99.711057 
L 194.416246 104.126823 
L 199.426983 108.570224 
L 204.43772 105.500979 
L 209.448458 101.488081 
L 214.459195 101.582337 
L 219.469932 102.276347 
" clip-path="url(#pc20333fd04)" style="fill: none; stroke: #00008b; stroke-width: 1.5; stroke-linecap: square"/>
   </g>
   <g id="line2d_11">
    <path d="M 39.08339 62.804629 
L 44.094127 51.108609 
L 49.104864 41.393182 
L 54.115602 37.196563 
L 59.126339 34.937965 
L 64.137076 71.417241 
L 69.147813 65.73812 
L 74.158551 74.973446 
L 79.169288 73.797822 
L 84.180025 77.429301 
L 89.190763 80.891471 
L 94.2015 73.620521 
L 99.212237 77.938421 
L 104.222974 76.143287 
L 109.233712 83.805701 
L 114.244449 80.778485 
L 119.255186 88.497199 
L 124.265924 88.31041 
L 129.276661 95.658929 
L 134.287398 91.420698 
L 139.298136 93.856785 
L 144.308873 100.812514 
L 149.31961 100.105887 
L 154.330347 104.090811 
L 159.341085 104.11774 
L 164.351822 104.346999 
L 169.362559 100.367031 
L 174.373297 101.061174 
L 179.384034 102.169117 
L 184.394771 99.512957 
L 189.405508 100.597987 
L 194.416246 101.778366 
L 199.426983 102.996298 
L 204.43772 103.928243 
L 209.448458 106.094694 
L 214.459195 101.582337 
L 219.469932 104.457548 
" clip-path="url(#pc20333fd04)" style="fill: none; stroke: #808080; stroke-linecap: square"/>
   </g>
   <g id="patch_3">
    <path d="M 30.064063 177.976683 
L 228.489259 177.976683 
" style="fill: none; stroke: #000000; stroke-width: 0.8; stroke-linejoin: miter; stroke-linecap: square"/>
   </g>
   <g id="text_11">
    <text style="font-weight: 700; font-size: 12px; font-family: 'DejaVu Sans', 'Bitstream Vera Sans', 'Computer Modern Sans Serif', 'Lucida Grande', 'Verdana', 'Geneva', 'Lucid', 'Arial', 'Helvetica', 'Avant Garde', sans-serif; text-anchor: start" x="15.890834" y="28.409754" transform="rotate(-0 15.890834 28.409754)">a</text>
   </g>
   <g id="text_12">
    <text style="font-size: 9.6px; font-family: 'DejaVu Sans', 'Bitstream Vera Sans', 'Computer Modern Sans Serif', 'Lucida Grande', 'Verdana', 'Geneva', 'Lucid', 'Arial', 'Helvetica', 'Avant Garde', sans-serif" transform="translate(73.964161 14.4945)">Military Expenditure as</text>
    <text style="font-size: 9.6px; font-family: 'DejaVu Sans', 'Bitstream Vera Sans', 'Computer Modern Sans Serif', 'Lucida Grande', 'Verdana', 'Geneva', 'Lucid', 'Arial', 'Helvetica', 'Avant Garde', sans-serif" transform="translate(53.729161 25.2444)">Share of Government Spending</text>
   </g>
   <g id="legend_1">
    <g id="line2d_12">
     <path d="M 140.838009 41.72315 
L 148.838009 41.72315 
L 156.838009 41.72315 
" style="fill: none; stroke: #00008b; stroke-width: 1.5; stroke-linecap: square"/>
    </g>
    <g id="text_13">
     <text style="font-size: 8px; font-family: 'DejaVu Sans', 'Bitstream Vera Sans', 'Computer Modern Sans Serif', 'Lucida Grande', 'Verdana', 'Geneva', 'Lucid', 'Arial', 'Helvetica', 'Avant Garde', sans-serif; text-anchor: start" x="163.238009" y="44.52315" transform="rotate(-0 163.238009 44.52315)">Australia</text>
    </g>
    <g id="line2d_13">
     <path d="M 140.838009 53.46565 
L 148.838009 53.46565 
L 156.838009 53.46565 
" style="fill: none; stroke: #808080; stroke-linecap: square"/>
    </g>
    <g id="text_14">
     <text style="font-size: 8px; font-family: 'DejaVu Sans', 'Bitstream Vera Sans', 'Computer Modern Sans Serif', 'Lucida Grande', 'Verdana', 'Geneva', 'Lucid', 'Arial', 'Helvetica', 'Avant Garde', sans-serif; text-anchor: start" x="163.238009" y="56.26565" transform="rotate(-0 163.238009 56.26565)">Global median</text>
    </g>
   </g>
  </g>
  <g id="axes_2">
   <g id="patch_4">
    <path d="M 299.355401 172.976683 
L 497.780598 172.976683 
L 497.780598 31.2444 
L 299.355401 31.2444 
L 299.355401 172.976683 
z
" style="fill: none"/>
   </g>
   <g id="matplotlib.axis_3">
    <g id="xtick_5">
     <g id="line2d_14">
      <g>
       <use xlink:href="#m114b6868ec" x="318.396203" y="177.976683" style="stroke: #000000; stroke-width: 0.8"/>
      </g>
     </g>
     <g id="text_15">
      <text style="font-size: 8px; font-family: 'DejaVu Sans', 'Bitstream Vera Sans', 'Computer Modern Sans Serif', 'Lucida Grande', 'Verdana', 'Geneva', 'Lucid', 'Arial', 'Helvetica', 'Avant Garde', sans-serif; text-anchor: middle" x="318.396203" y="191.055433" transform="rotate(-0 318.396203 191.055433)">1990</text>
     </g>
    </g>
    <g id="xtick_6">
     <g id="line2d_15">
      <g>
       <use xlink:href="#m114b6868ec" x="368.503576" y="177.976683" style="stroke: #000000; stroke-width: 0.8"/>
      </g>
     </g>
     <g id="text_16">
      <text style="font-size: 8px; font-family: 'DejaVu Sans', 'Bitstream Vera Sans', 'Computer Modern Sans Serif', 'Lucida Grande', 'Verdana', 'Geneva', 'Lucid', 'Arial', 'Helvetica', 'Avant Garde', sans-serif; text-anchor: middle" x="368.503576" y="191.055433" transform="rotate(-0 368.503576 191.055433)">2000</text>
     </g>
    </g>
    <g id="xtick_7">
     <g id="line2d_16">
      <g>
       <use xlink:href="#m114b6868ec" x="418.610949" y="177.976683" style="stroke: #000000; stroke-width: 0.8"/>
      </g>
     </g>
     <g id="text_17">
      <text style="font-size: 8px; font-family: 'DejaVu Sans', 'Bitstream Vera Sans', 'Computer Modern Sans Serif', 'Lucida Grande', 'Verdana', 'Geneva', 'Lucid', 'Arial', 'Helvetica', 'Avant Garde', sans-serif; text-anchor: middle" x="418.610949" y="191.055433" transform="rotate(-0 418.610949 191.055433)">2010</text>
     </g>
    </g>
    <g id="xtick_8">
     <g id="line2d_17">
      <g>
       <use xlink:href="#m114b6868ec" x="468.718322" y="177.976683" style="stroke: #000000; stroke-width: 0.8"/>
      </g>
     </g>
     <g id="text_18">
      <text style="font-size: 8px; font-family: 'DejaVu Sans', 'Bitstream Vera Sans', 'Computer Modern Sans Serif', 'Lucida Grande', 'Verdana', 'Geneva', 'Lucid', 'Arial', 'Helvetica', 'Avant Garde', sans-serif; text-anchor: middle" x="468.718322" y="191.055433" transform="rotate(-0 468.718322 191.055433)">2020</text>
     </g>
    </g>
    <g id="text_19">
     <text style="font-size: 10px; font-family: 'DejaVu Sans', 'Bitstream Vera Sans', 'Computer Modern Sans Serif', 'Lucida Grande', 'Verdana', 'Geneva', 'Lucid', 'Arial', 'Helvetica', 'Avant Garde', sans-serif; text-anchor: middle" x="398.568" y="204.317621" transform="rotate(-0 398.568 204.317621)">Year</text>
    </g>
   </g>
   <g id="matplotlib.axis_4">
    <g id="ytick_6">
     <g id="line2d_18">
      <g>
       <use xlink:href="#m1c6270cdb2" x="299.355401" y="172.976683" style="stroke: #000000; stroke-width: 0.8"/>
      </g>
     </g>
     <g id="text_20">
      <text style="font-size: 10px; font-family: 'DejaVu Sans', 'Bitstream Vera Sans', 'Computer Modern Sans Serif', 'Lucida Grande', 'Verdana', 'Geneva', 'Lucid', 'Arial', 'Helvetica', 'Avant Garde', sans-serif; text-anchor: end" x="292.355401" y="176.775902" transform="rotate(-0 292.355401 176.775902)">$0</text>
     </g>
    </g>
    <g id="ytick_7">
     <g id="line2d_19">
      <g>
       <use xlink:href="#m1c6270cdb2" x="299.355401" y="137.217147" style="stroke: #000000; stroke-width: 0.8"/>
      </g>
     </g>
     <g id="text_21">
      <text style="font-size: 10px; font-family: 'DejaVu Sans', 'Bitstream Vera Sans', 'Computer Modern Sans Serif', 'Lucida Grande', 'Verdana', 'Geneva', 'Lucid', 'Arial', 'Helvetica', 'Avant Garde', sans-serif; text-anchor: end" x="292.355401" y="141.016366" transform="rotate(-0 292.355401 141.016366)">$500</text>
     </g>
    </g>
    <g id="ytick_8">
     <g id="line2d_20">
      <g>
       <use xlink:href="#m1c6270cdb2" x="299.355401" y="101.45761" style="stroke: #000000; stroke-width: 0.8"/>
      </g>
     </g>
     <g id="text_22">
      <text style="font-size: 10px; font-family: 'DejaVu Sans', 'Bitstream Vera Sans', 'Computer Modern Sans Serif', 'Lucida Grande', 'Verdana', 'Geneva', 'Lucid', 'Arial', 'Helvetica', 'Avant Garde', sans-serif; text-anchor: end" x="292.355401" y="105.256829" transform="rotate(-0 292.355401 105.256829)">$1,000</text>
     </g>
    </g>
    <g id="ytick_9">
     <g id="line2d_21">
      <g>
       <use xlink:href="#m1c6270cdb2" x="299.355401" y="65.698074" style="stroke: #000000; stroke-width: 0.8"/>
      </g>
     </g>
     <g id="text_23">
      <text style="font-size: 10px; font-family: 'DejaVu Sans', 'Bitstream Vera Sans', 'Computer Modern Sans Serif', 'Lucida Grande', 'Verdana', 'Geneva', 'Lucid', 'Arial', 'Helvetica', 'Avant Garde', sans-serif; text-anchor: end" x="292.355401" y="69.497293" transform="rotate(-0 292.355401 69.497293)">$1,500</text>
     </g>
    </g>
    <g id="text_24">
     <text style="font-size: 10px; font-family: 'DejaVu Sans', 'Bitstream Vera Sans', 'Computer Modern Sans Serif', 'Lucida Grande', 'Verdana', 'Geneva', 'Lucid', 'Arial', 'Helvetica', 'Avant Garde', sans-serif; text-anchor: middle" x="251.285089" y="102.110542" transform="rotate(-90 251.285089 102.110542)">AUD</text>
    </g>
   </g>
   <g id="line2d_22">
    <path d="M 308.374728 135.304704 
L 313.385466 132.994668 
L 318.396203 131.10258 
L 323.40694 129.728869 
L 328.417677 131.109406 
L 333.428415 132.436317 
L 338.439152 128.479969 
L 343.449889 127.720333 
L 348.460627 125.112088 
L 353.471364 127.189381 
L 358.482101 132.39264 
L 363.492838 129.087586 
L 368.503576 132.354268 
L 373.514313 134.114264 
L 378.52505 129.65719 
L 383.535788 119.482213 
L 388.546525 109.057991 
L 393.557262 103.248335 
L 398.568 98.936293 
L 403.578737 85.031517 
L 408.589474 79.427242 
L 413.600211 79.694656 
L 418.610949 60.785198 
L 423.621686 46.327643 
L 428.632423 50.079599 
L 433.643161 58.590996 
L 438.653898 56.066691 
L 443.664635 65.527607 
L 448.675372 56.844993 
L 453.68611 53.094067 
L 458.696847 58.6346 
L 463.707584 63.54242 
L 468.718322 59.961525 
L 473.729059 38.459314 
L 478.739796 40.8542 
L 483.750534 42.29029 
L 488.761271 37.848617 
" clip-path="url(#p181b632f82)" style="fill: none; stroke: #00008b; stroke-width: 1.5; stroke-linecap: square"/>
   </g>
   <g id="line2d_23">
    <path d="M 308.374728 169.005091 
L 313.385466 168.730586 
L 318.396203 168.717485 
L 323.40694 168.536731 
L 328.417677 169.491723 
L 333.428415 169.6134 
L 338.439152 169.932967 
L 343.449889 168.971594 
L 348.460627 169.338964 
L 353.471364 168.777625 
L 358.482101 168.842273 
L 363.492838 169.215956 
L 368.503576 169.168935 
L 373.514313 169.222098 
L 378.52505 168.970439 
L 383.535788 168.939224 
L 388.546525 168.613935 
L 393.557262 167.761785 
L 398.568 166.279583 
L 403.578737 164.577313 
L 408.589474 163.150326 
L 413.600211 164.813657 
L 418.610949 164.191939 
L 423.621686 162.714421 
L 428.632423 163.016025 
L 433.643161 163.181535 
L 438.653898 163.499129 
L 443.664635 164.68289 
L 448.675372 164.928202 
L 453.68611 164.468721 
L 458.696847 164.510615 
L 463.707584 164.18632 
L 468.718322 164.705519 
L 473.729059 164.642423 
L 478.739796 164.048928 
L 483.750534 162.723232 
L 488.761271 162.019628 
" clip-path="url(#p181b632f82)" style="fill: none; stroke: #808080; stroke-linecap: square"/>
   </g>
   <g id="patch_5">
    <path d="M 299.355401 177.976683 
L 497.780598 177.976683 
" style="fill: none; stroke: #000000; stroke-width: 0.8; stroke-linejoin: miter; stroke-linecap: square"/>
   </g>
   <g id="text_25">
    <text style="font-weight: 700; font-size: 12px; font-family: 'DejaVu Sans', 'Bitstream Vera Sans', 'Computer Modern Sans Serif', 'Lucida Grande', 'Verdana', 'Geneva', 'Lucid', 'Arial', 'Helvetica', 'Avant Garde', sans-serif; text-anchor: start" x="285.182173" y="28.409754" transform="rotate(-0 285.182173 28.409754)">b</text>
   </g>
   <g id="text_26">
    <text style="font-size: 9.6px; font-family: 'DejaVu Sans', 'Bitstream Vera Sans', 'Computer Modern Sans Serif', 'Lucida Grande', 'Verdana', 'Geneva', 'Lucid', 'Arial', 'Helvetica', 'Avant Garde', sans-serif" transform="translate(350.223 14.4945)">Military Expenditure</text>
    <text style="font-size: 9.6px; font-family: 'DejaVu Sans', 'Bitstream Vera Sans', 'Computer Modern Sans Serif', 'Lucida Grande', 'Verdana', 'Geneva', 'Lucid', 'Arial', 'Helvetica', 'Avant Garde', sans-serif" transform="translate(374.28375 25.2444)">per capita</text>
   </g>
  </g>
 </g>
 <defs>
  <clipPath id="pc20333fd04">
   <rect x="30.064063" y="31.2444" width="198.425197" height="141.732283"/>
  </clipPath>
  <clipPath id="p181b632f82">
   <rect x="299.355401" y="31.2444" width="198.425197" height="141.732283"/>
  </clipPath>
 </defs>
</svg>
